<svg width="155" height="31" fill="none" xmlns="http://www.w3.org/2000/svg"><path d="m7.27228 15.4002-3.5079 3.4503-3.504859-3.4503L3.76438 11.95l3.5079 3.4502Zm8.50442-8.3778 6.0062 5.9155 3.5049-3.4502L15.7767.124939 6.26569 9.4877l3.50486 3.4502 6.00615-5.9155ZM27.7921 11.95l-3.5049 3.4502 3.5049 3.4503 3.5018-3.4503-3.5018-3.4502ZM15.7767 23.7781l-6.00615-5.9126-3.50486 3.4473 9.51101 9.3627 9.5111-9.3627-3.5049-3.4473-6.0062 5.9126Zm0-4.9276 3.5049-3.4503-3.5049-3.4502-3.5048 3.4502 3.5048 3.4503Zm36.9891.3313v-.0478c0-2.2504-1.2128-3.3756-3.1866-4.1158 1.2128-.6715 2.2376-1.7251 2.2376-3.6144v-.0477c0-2.63246-2.1405-4.3337-5.6181-4.3337h-7.8951v16.7557h8.0952c3.8414 0 6.373-1.5311 6.373-4.5963h-.006Zm-4.6692-7.1631c0 1.2445-1.046 1.7728-2.6983 1.7728H41.951v-3.5368h3.6959c1.5796 0 2.4558.6208 2.4558 1.7222l-.0061.0418Zm.949 6.7034c0 1.2446-.9975 1.8177-2.6529 1.8177H41.951v-3.6801h4.3265c1.9222 0 2.7742.6954 2.7742 1.8206l-.0061.0418Zm11.5879 5.056V7.0224H56.877v16.7557h3.7565Zm20.1287 0V7.0224h-3.708v10.3178L69.0803 7.0224H65.627v16.7557h3.6959V13.126l8.2407 10.6521h3.1986Zm20.7408 0L94.1965 6.90302h-3.4533L83.4515 23.7781h3.8171l1.5614-3.7577h7.1977l1.5554 3.7577h3.9199Zm-6.8062-7.0139h-4.5357l2.2617-5.432 2.274 5.432Zm24.6552 7.0139V7.0224h-3.708v10.3178l-7.977-10.3178h-3.45v16.7557h3.693V13.126l8.243 10.6521h3.199Zm19.328-2.7041-2.38-2.3698c-1.337 1.1939-2.528 1.9609-4.475 1.9609-2.916 0-4.936-2.3877-4.936-5.2649v-.0477c0-2.8712 2.068-5.2171 4.936-5.2171 1.701 0 3.032.7163 4.354 1.8892l2.374-2.70404c-1.58-1.53111-3.499-2.58468-6.71-2.58468-5.227 0-8.874 3.90092-8.874 8.65542v.0477c0 4.8112 3.72 8.6166 8.729 8.6166 3.277.009 5.221-1.1401 6.97-2.9816h.012Zm15.978 2.7041V20.495h-9.253v-3.5249h8.025v-3.283h-8.025v-3.3846h9.12V7.01942h-12.84V23.7751l12.973.003Z" fill="#F0B90B"/></svg>