<svg width="150" height="27" fill="none" xmlns="http://www.w3.org/2000/svg"><path d="M30.2449 7.49829c-5.4289 0-9.6709 4.05701-9.6709 9.48811 0 5.4311 4.1348 9.4533 9.6709 9.4533 5.5361 0 9.7428-4.0917 9.7428-9.4881 0-5.3616-4.1348-9.45331-9.7428-9.45331Zm.0353 15.02601c-3.0916 0-5.3571-2.3637-5.3571-5.5379 0-3.2104 2.2289-5.5727 5.3204-5.5727 3.1283 0 5.3924 2.3984 5.3924 5.5727 0 3.1742-2.2641 5.5379-5.3557 5.5379Zm10.8931-10.8996h2.6968v14.4625h4.3139V7.85083h-7.0107v3.77387Zm-31.45579-.211c2.26549 0 4.06289 1.3755 4.74519 3.4213h4.5662c-.8275-4.3734-4.4943-7.33671-9.27476-7.33671-5.42894 0-9.670888 4.05701-9.670888 9.48811 0 5.4311 4.134778 9.4533 9.670888 9.4533 4.67336 0 8.41196-2.9633 9.23946-7.3728h-4.5295c-.6471 2.0459-2.4445 3.4574-4.70996 3.4574-3.12822 0-5.32042-2.3637-5.32042-5.5379-.00135-3.209 2.15557-5.5727 5.28379-5.5727ZM123.139 15.2236l-3.163-.458c-1.51-.211-2.589-.7051-2.589-1.8696 0-1.27 1.403-1.9043 3.308-1.9043 2.085 0 3.415.8814 3.703 2.3276h4.17c-.468-3.66833-3.344-5.81968-7.765-5.81968-4.566 0-7.586 2.2929-7.586 5.53798 0 3.1034 1.978 4.9036 5.968 5.4671l3.163.4581c1.547.211 2.409.8119 2.409 1.9403 0 1.4463-1.509 2.0459-3.594 2.0459-2.553 0-3.991-1.023-4.207-2.5747h-4.242c.396 3.5629 3.235 6.0667 8.412 6.0667 4.71 0 7.837-2.1166 7.837-5.7502 0-3.2451-2.266-4.9384-5.824-5.4672ZM46.0271.337831c-1.5818 0-2.7688 1.128419-2.7688 2.680159 0 1.55175 1.1857 2.68017 2.7688 2.68017 1.5817 0 2.7687-1.12842 2.7687-2.68017-.0014-1.55174-1.187-2.680159-2.7687-2.680159ZM109.335 14.0939c0-3.9502-2.445-6.59561-7.621-6.59561-4.8894 0-7.6215 2.43444-8.1614 6.17361h4.2786c.2157-1.4463 1.3661-2.6455 3.8108-2.6455 2.193 0 3.272.9522 3.272 2.1167 0 1.517-1.978 1.9042-4.423 2.1513-3.3069.3525-7.405 1.481-7.405 5.7142 0 3.2811 2.4811 5.3964 6.4355 5.3964 3.0915 0 5.0325-1.27 6.0045-3.2811.143 1.7988 1.509 2.9633 3.415 2.9633h2.517v-3.7739h-2.122v-8.2194h-.001Zm-4.244 4.5858c0 2.4344-2.156 4.2332-4.781 4.2332-1.6187 0-2.9848-.6704-2.9848-2.0806 0-1.7988 2.1936-2.2929 4.2068-2.5039 1.941-.1762 3.02-.5996 3.559-1.4115v1.7628ZM82.1915 7.49829c-2.4093 0-4.4224.9882-5.8603 2.64541V.16156h-4.3139V26.0885h4.242v-2.3984c1.4379 1.728 3.4877 2.7509 5.9322 2.7509 5.1766 0 9.0957-4.0209 9.0957-9.4533s-3.9897-9.48941-9.0957-9.48941Zm-.6471 15.02601c-3.0916 0-5.357-2.3637-5.357-5.5379 0-3.1743 2.3007-5.5727 5.3923-5.5727 3.1282 0 5.3204 2.3637 5.3204 5.5727.0013 3.1756-2.2641 5.5379-5.3557 5.5379ZM61.7007 7.49829c-2.804 0-4.6381 1.12842-5.7165 2.71621V7.85083h-4.2786V26.0872h4.3139v-9.9114c0-2.787 1.7974-4.7621 4.4576-4.7621 2.4811 0 4.0262 1.728 4.0262 4.2332v10.4416h4.3139v-10.758c.0014-4.5872-2.4065-7.83221-7.1165-7.83221Zm87.8243 8.88851c0-5.2201-3.882-8.88851-9.095-8.88851-5.536 0-9.599 4.09171-9.599 9.48811 0 5.6794 4.35 9.4533 9.671 9.4533 4.494 0 8.017-2.6107 8.915-6.3138h-4.494c-.647 1.6225-2.229 2.5399-4.351 2.5399-2.769 0-4.854-1.6933-5.32-4.6565h14.272v-1.6225h.001Zm-14.02-1.4102c.684-2.54 2.625-3.7739 4.854-3.7739 2.445 0 4.314 1.3755 4.745 3.7739h-9.599Z" fill="#0052FF"/></svg>