<svg width="165" height="31" fill="none" xmlns="http://www.w3.org/2000/svg"><path d="M145.184 16.0135c-.848-.569-1.772-.9483-2.697-1.4415-.578-.3034-1.195-.6069-1.696-1.0242-.847-.6828-.693-2.0484.232-2.6553 1.271-.8346 3.391-.3794 3.622 1.3276 0 .038.038.0759.077.0759h1.927c.038 0 .077-.0379.077-.0759-.116-1.1759-.578-2.1622-1.426-2.80707-.809-.60694-1.734-.91041-2.736-.91041-5.087 0-5.549 5.31068-2.813 6.97978.308.1897 3.006 1.5174 3.969 2.1243.963.569 1.233 1.6312.848 2.4657-.386.7587-1.349 1.2898-2.312 1.2139-1.079-.0759-1.889-.6449-2.197-1.5174-.038-.1517-.077-.4552-.077-.6069 0-.0379-.038-.0759-.077-.0759h-2.081c-.038 0-.077.038-.077.0759 0 1.4794.385 2.314 1.387 3.0726.964.7208 2.004 1.0243 3.122 1.0243 2.851 0 4.315-1.5933 4.624-3.2244.231-1.5932-.231-3.0347-1.696-4.021ZM54.3584 8.80585H52.4317c-.0385 0-.0771.03793-.0771.03793l-1.734 5.57632c-.0385.0759-.1156.0759-.1541 0l-1.7341-5.57632c0-.03794-.0385-.03793-.0771-.03793H45.4955c-.0385 0-.077.03793-.077.07586V23.107c0 .0379.0385.0759.077.0759h2.0809c.0385 0 .077-.038.077-.0759V12.2958c0-.0759.1157-.1138.1542-.038l1.734 5.6143.1156.3793c0 .038.0386.038.0771.038h1.6184c.0386 0 .0771-.038.0771-.038l.1156-.3793 1.7341-5.6143c.0385-.0758.1541-.0758.1541.038V23.107c0 .0379.0385.0759.0771.0759h2.0808c.0385 0 .0771-.038.0771-.0759V8.88171c0-.03793-.0386-.07586-.0771-.07586h-1.2331ZM113.162 8.80585c-.039 0-.077.03793-.077.03793l-1.734 5.57632c-.039.0759-.116.0759-.154 0l-1.734-5.57632c0-.03794-.039-.03793-.077-.03793h-3.199c-.038 0-.077.03793-.077.07586V23.107c0 .0379.039.0759.077.0759h2.081c.039 0 .077-.038.077-.0759V12.2958c0-.0759.116-.1138.154-.038l1.734 5.6143.116.3793c0 .038.038.038.077.038h1.618c.039 0 .077-.038.077-.038l.116-.3793 1.734-5.6143c.039-.0758.154-.0758.154.038V23.107c0 .0379.039.0759.077.0759h2.081c.039 0 .077-.038.077-.0759V8.88171c0-.03793-.038-.07586-.077-.07586h-3.121ZM86.1879 8.80585h-9.9033c-.0385 0-.0771.03793-.0771.07586v1.78289c0 .0379.0386.0759.0771.0759h3.8149V23.107c0 .0379.0385.0759.0771.0759h2.0808c.0386 0 .0771-.038.0771-.0759V10.7405h3.8149c.0385 0 .0771-.038.0771-.0759V8.88171c.0385-.03793 0-.07586-.0386-.07586ZM98.5188 23.1829h1.8882c.038 0 .077-.038.077-.1138L96.5535 8.80594c0-.03793-.0385-.03793-.0771-.03793h-2.7359c-.0385 0-.0771.03793-.0771.03793L89.7329 23.0691c0 .0379.0385.1138.0771.1138h1.8882c.0385 0 .077-.038.077-.038l1.1561-4.1727c0-.0379.0385-.0379.077-.0379h4.2003c.0385 0 .0771.0379.0771.0379l1.156 4.1727s.0385.038.0771.038Zm-5.0095-6.2971 1.5414-5.5762c.0385-.0759.1156-.0759.1541 0l1.5414 5.5762c0 .038-.0386.1138-.0771.1138h-3.0442c-.0771 0-.1156-.0758-.1156-.1138ZM130.965 23.1829h1.888c.039 0 .077-.038.077-.1138L129 8.80594c0-.03793-.039-.03793-.078-.03793H126.187c-.039 0-.078.03793-.078.03793l-3.93 14.26316c0 .0379.038.1138.077.1138h1.888c.039 0 .077-.038.077-.038l1.156-4.1727c0-.0379.039-.0379.077-.0379h4.201c.038 0 .077.0379.077.0379l1.156 4.1727s.038.038.077.038Zm-5.01-6.2971 1.542-5.5762c.038-.0759.115-.0759.154 0l1.541 5.5762c0 .038-.038.1138-.077.1138h-3.044c-.077 0-.116-.0758-.116-.1138ZM64.1461 21.0585v-4.4003c0-.0379.0386-.0759.0771-.0759h5.5875c.0385 0 .0771-.0379.0771-.0758v-1.7829c0-.038-.0386-.0759-.0771-.0759h-5.5875c-.0385 0-.0771-.0379-.0771-.0759v-3.7555c0-.0379.0386-.0758.0771-.0758h6.3196c.0386 0 .0771-.038.0771-.0759V8.88171c0-.03793-.0385-.07586-.0771-.07586h-8.5546c-.0385 0-.0771.03793-.0771.07586V23.107c0 .0379.0386.0759.0771.0759h8.8244c.0385 0 .077-.038.077-.0759v-1.8588c0-.0379-.0385-.0758-.077-.0758h-6.6279c0-.038-.0386-.0759-.0386-.1139ZM164.297 23.0311l-7.244-7.3591c-.039-.038-.039-.0759 0-.1138l6.512-6.67639c.038-.03794 0-.1138-.039-.1138h-2.658c-.039 0-.039 0-.039.03793L155.28 14.496c-.039.038-.116 0-.116-.0379V8.91974c0-.03794-.038-.07587-.077-.07587h-2.119c-.039 0-.077.03793-.077.07587V23.1449c0 .038.038.0759.077.0759h2.081c.038 0 .077-.0379.077-.0759v-6.2591c0-.0758.077-.1138.115-.0379l6.243 6.3729.039.0379h2.658c.116-.0758.155-.1896.116-.2276Z" fill="#8F9CA9"/><path d="M31.122 1.14331 18.4827 10.3991l2.3506-5.46243L31.122 1.14331Z" fill="#E17726" stroke="#E17726" stroke-width=".385345" stroke-linecap="round" stroke-linejoin="round"/><path d="M1.91284 1.14331 14.475 10.475 12.24 4.93667 1.91284 1.14331ZM26.5751 22.5759l-3.391 5.0831 7.2445 1.9725 2.0423-6.9418-5.8958-.1138ZM.602783 22.6897l2.042337 6.9418 7.20595-1.9725-3.3525-5.0831-5.895787.1138Z" fill="#E27625" stroke="#E27625" stroke-width=".385345" stroke-linecap="round" stroke-linejoin="round"/><path d="m9.46571 14.0028-2.0038 2.9968 7.12889.3034-.2312-7.58669-4.89389 4.28649ZM23.6078 14.0028l-4.971-4.36236-.1541 7.66256 7.1289-.3034-2.0038-2.9968ZM9.85107 27.659l4.31583-2.0484-3.7378-2.8829-.57803 4.9313ZM18.9067 25.6106l4.2774 2.0484-.578-4.9313-3.6994 2.8829Z" fill="#E27625" stroke="#E27625" stroke-width=".385345" stroke-linecap="round" stroke-linejoin="round"/><path d="m23.1841 27.659-4.2774-2.0485.3469 2.7313-.0386 1.1759 3.9691-1.8587ZM9.85107 27.659l4.00763 1.8587-.0386-1.1759.3468-2.7313-4.31583 2.0485Z" fill="#D5BFB2" stroke="#D5BFB2" stroke-width=".385345" stroke-linecap="round" stroke-linejoin="round"/><path d="m13.9357 20.9069-3.5836-1.0243 2.5047-1.1381 1.0789 2.1624ZM19.1379 20.9069l1.0405-2.1624 2.5432 1.1381-3.5837 1.0243Z" fill="#233447" stroke="#233447" stroke-width=".385345" stroke-linecap="round" stroke-linejoin="round"/><path d="m9.85099 27.659.61651-5.0833-3.96896.1138 3.35245 4.9695ZM22.606 22.5757l.578 5.0833 3.391-4.9695-3.969-.1138ZM25.6116 16.9997l-7.1289.3035.6551 3.6037 1.0404-2.1623 2.5433 1.1381 2.8901-2.883ZM10.352 19.8825l2.5047-1.138 1.079 2.1622.6551-3.6037-7.12889-.3034 2.89009 2.8829Z" fill="#CC6228" stroke="#CC6228" stroke-width=".385345" stroke-linecap="round" stroke-linejoin="round"/><path d="m7.46191 16.9997 2.96709 5.728-.0771-2.845-2.88999-2.883ZM22.7216 19.8827l-.1156 2.845 3.0056-5.728-2.89 2.883ZM14.5909 17.303l-.6551 3.6038.8092 4.2865.1927-5.6522-.3468-2.2381ZM18.4826 17.303l-.3469 2.2381.1542 5.6522.8477-4.2865-.655-3.6038Z" fill="#E27525" stroke="#E27525" stroke-width=".385345" stroke-linecap="round" stroke-linejoin="round"/><path d="m19.138 20.9068-.8477 4.2865.6165.4172 3.6993-2.8829.1156-2.845-3.5837 1.0242ZM10.3521 19.8826l.077 2.845 3.7378 2.8829.578-.4172-.8092-4.2865-3.5836-1.0242Z" fill="#F5841F" stroke="#F5841F" stroke-width=".385345" stroke-linecap="round" stroke-linejoin="round"/><path d="m19.2149 29.5177.0386-1.1759-.3469-.2656h-4.7782l-.3083.2656.0385 1.1759-4.00753-1.8587 1.38723 1.138 2.8516 1.9345h4.8553l2.8515-1.9345 1.3873-1.138-3.9691 1.8587Z" fill="#C0AC9D" stroke="#C0AC9D" stroke-width=".385345" stroke-linecap="round" stroke-linejoin="round"/><path d="m18.9069 25.6106-.6166-.4172h-3.5452l-.578.4172-.3468 2.7313.3083-.2656h4.7783l.3468.2656-.3468-2.7313Z" fill="#8F9CA9" stroke="#8F9CA9" stroke-width=".385345" stroke-linecap="round" stroke-linejoin="round"/><path d="m31.6616 11.0061 1.079-5.12103-1.6184-4.7417-12.2155 8.95233 4.7012 3.9072 6.628 1.8966 1.4643-1.669-.6166-.4552 1.0019-.9104-.7707-.607 1.0019-.7587-.6551-.4931ZM.333008 5.88507 1.41197 11.0061l-.693618.4931 1.001898.7587-.770692.607 1.040432.9104-.65509.4552 1.46431 1.669 6.66646-1.8966 4.70123-3.9072L1.91292 1.14337.333008 5.88507Z" fill="#763E1A" stroke="#763E1A" stroke-width=".385345" stroke-linecap="round" stroke-linejoin="round"/><path d="m30.2358 15.8996-6.6279-1.8967 2.0037 2.9967-3.0056 5.7281 3.969-.038h5.8958l-2.235-6.7901ZM9.46566 14.0029l-6.66642 1.8967-2.196457 6.7901H6.49852l3.93048.038-2.96712-5.7281 2.00378-2.9967ZM18.4828 17.303l.4239-7.2073 1.9267-5.15899h-8.5932l1.9267 5.15899.4239 7.2073.1542 2.276v5.6142h3.5451V19.579l.1927-2.276Z" fill="#F5841F" stroke="#F5841F" stroke-width=".385345" stroke-linecap="round" stroke-linejoin="round"/></svg>