<svg width="150" height="41" fill="none" xmlns="http://www.w3.org/2000/svg"><path d="M16.789 23.3835h-1.8809c-1.1285 0 2.7168 5.3078 5.4964 5.9045.6269.1234.9404.432.9404 1.0286v3.8883c-.0209.7406-.4598 1.0904-1.1912.9875-5.3083-.8641-9.1745-3.662-11.57787-8.4144-.35528-.6789-.62696-1.3783-.83595-2.119-.39708-1.2138-.43887-1.2755-1.75549-1.3166-1.63009-.0412-2.69593-.8641-3.0512-2.3248-.39708-1.6458.91954-3.374 2.67503-3.4768.25078-.0206.48066-.0206.73145 0 .75235.0617 1.14943-.3498 1.33751-1.0081.45977-1.6458 1.19123-3.2094 2.17346-4.6083.81506-1.1727 1.23306-1.2138 2.25706-.2469.7732.7406 1.5256 1.5224 2.2989 2.263.5015.4732.6269.9875.188 1.5636-.2298.3085-.4179.6377-.5851.9875-.3553.72-.1672 1.0286.6478 1.0286 1.4211.0206 2.8214 0 4.2634 0 1.5047.0206 2.6123.9258 2.9676 2.407.2717 1.1933-.3971 2.654-1.6928 3.1271-.7524.2881-1.651.2469-2.487.3086-.2925.0412-.606.0206-.9195.0206Z" fill="#007EA4"/><path d="M23.0585 5.58786c4.9112.20573 9.2372 2.59217 12.2048 7.26214 1.0241 1.6253.7315 3.1271-.7314 4.0117-1.5674.9875-3.3229.5761-4.3051-.9875-1.4838-2.3658-3.5737-3.8676-6.3532-4.382-2.2153-.3908-4.5141.0206-6.4368 1.1933-.8777.5349-1.1494.4731-1.8809-.2469l-2.3406-2.3042c-.6688-.69943-.6479-1.1726.1463-1.74864 2.4869-1.78983 5.8934-2.85962 9.6969-2.7979Zm.209 26.66234v-1.975c-.0418-.4526.2717-.8435.7315-.9052 2.8004-.5761 4.8693-2.119 6.3322-4.5055.6479-1.0697 1.6719-1.4812 2.8841-1.296 1.1076.1645 1.9644.72 2.4451 1.7486.3135.6789.2717 1.4607-.0836 2.119-2.2362 4.1763-6.3532 7.0359-11.0972 7.7148-.815.1029-1.1912-.1851-1.2121-.9875-.0209-.6171 0-1.2549 0-1.9132Z" fill="#1AA64A"/><path d="M46.3399 14.4549v13.3104h-2.5706V14.4549h-4.1797v-2.119h10.8882v2.119h-4.1379ZM50.4775 22.7867c-.0209-.7201.1254-1.4196.4389-2.0573.2717-.6584.6897-1.2344 1.2121-1.7282.5225-.4937 1.1286-.8846 1.7973-1.1315 1.3793-.5349 2.9049-.5349 4.2842 0 .6897.2675 1.2957.6789 1.7973 1.1933.5225.4937.9404 1.0903 1.2121 1.7487.5643 1.3166.5852 2.7979.0209 4.1145-.2717.6584-.6896 1.2344-1.2121 1.7282-1.0658 1.0286-2.5078 1.6047-4.0125 1.5841-.7315 0-1.442-.1235-2.1317-.3909-.6687-.2675-1.2957-.6583-1.7973-1.1727-.5224-.4937-.9195-1.0903-1.2121-1.7487-.2508-.6789-.3762-1.3989-.3971-2.1395Zm8.7565.0411c.0209-.8846-.2925-1.7281-.9195-2.3659-.5643-.6172-1.3793-.9669-2.2361-.9463-.8569 0-1.651.3497-2.2362.9463-1.233 1.3373-1.233 3.374 0 4.7112 1.1494 1.2138 3.093 1.2755 4.326.144.0418-.0411.1045-.0823.1463-.144.627-.6377.9404-1.4812.9195-2.3453ZM64.1662 27.8065V11.451h2.3197v10.4922l4.2633-4.1557h2.8632l-4.5977 4.4026 5.0574 5.5958h-3.0303l-4.5768-5.1638v5.1638h-2.3197v.0206h.0209ZM74.3023 22.7867c-.0209-.7201.1253-1.4196.4388-2.0573.2717-.6584.6897-1.2344 1.2121-1.7282.5225-.4937 1.1286-.8846 1.7973-1.1315 1.3793-.5349 2.9049-.5349 4.2842 0 .6897.2675 1.2957.6789 1.7973 1.1933.5225.4937.9404 1.0903 1.2121 1.7487.5643 1.3166.5852 2.7979.0209 4.1145-.2717.6584-.6896 1.2344-1.2121 1.7282-1.0658 1.0286-2.5078 1.6047-4.0125 1.5841-.7315 0-1.442-.1235-2.1317-.3909-.6687-.2675-1.2957-.6583-1.7973-1.1727-.5224-.4937-.9195-1.0903-1.2121-1.7487-.2508-.6789-.397-1.3989-.397-2.1395Zm8.7356.0411c.0209-.8846-.2926-1.7281-.9196-2.3659-.5642-.6172-1.3793-.9669-2.2361-.9463-.8569 0-1.651.3497-2.2362.9463-1.2121 1.3373-1.2121 3.374 0 4.7112 1.1494 1.2138 3.093 1.2755 4.326.144.0418-.0411.1045-.0823.1463-.144.627-.6377.9614-1.4812.9196-2.3453Z" fill="#007EA4"/><path d="M95.5561 20.6471c-.3344-.3908-.7524-.6789-1.2331-.864-.4806-.2058-1.0031-.3292-1.5256-.3086-.9404 0-1.7345.288-2.2988.9052s-.8568 1.399-.8568 2.407c0 1.0081.2925 1.8516.8568 2.4688s1.3793.9052 2.4033.9052c.5225.0206 1.045-.1029 1.5047-.3086.4598-.2263.8569-.5555 1.1495-.9463v2.6539c-.4389.2468-.8987.4114-1.3793.5349-.5016.1234-1.045.1851-1.5674.1851-1.5883 0-2.884-.5143-3.9081-1.5018-1.024-.9875-1.4838-2.3042-1.4838-3.9089 0-1.6047.5225-2.9213 1.5674-3.8883 1.0449-.9669 2.4033-1.4812 4.0752-1.4812.5016 0 .9823.0411 1.4629.1646.4389.1028.8569.2674 1.2331.4731v2.5099Zm4.7019-1.2755c.188-.576.523-1.0698 1.003-1.4607.439-.3291.983-.4937 1.526-.4731.334 0 .648.0411.961.1028.335.0823.648.2057.941.3498l-.836 1.9338c-.188-.144-.418-.2469-.648-.3086-.251-.0823-.523-.1234-.773-.1028-.774 0-1.317.288-1.672.9052s-.523 1.6458-.523 3.0859v4.4026h-2.3194v-10.019h2.3194v1.5841h.021Z" fill="#1AA64A"/><path d="M107.782 32.4971h-2.404l2.801-5.5752-3.741-9.1549h2.591l1.86 5.1638.293.9463c.084.3292.146.6584.188 1.0081.188-.576.397-1.1315.669-1.6664l.063-.1234 2.507-5.3284h2.529l-7.356 14.7301Zm8.589 0V17.7876h2.32v1.6458c.251-.6172.71-1.1315 1.296-1.4607.647-.3703 1.379-.5348 2.131-.5348 1.275-.0412 2.487.5143 3.281 1.4812.836.9875 1.254 2.2836 1.254 3.8677 0 1.6664-.397 3.0036-1.233 3.9705-.836.9669-1.964 1.4401-3.385 1.4401-1.359.0617-2.634-.5966-3.365-1.7075v6.0072h-2.299Zm2.257-9.7309c0 1.0286.272 1.8516.773 2.4893.502.5966 1.275.9464 2.069.9258.878 0 1.568-.288 2.048-.8641.481-.576.732-1.3989.732-2.4687s-.251-1.8721-.752-2.4687c-.523-.5966-1.275-.9258-2.069-.9052-.878 0-1.568.288-2.048.8846-.481.5966-.753 1.3784-.753 2.407Zm11.076 5.0403v-8.0028h-1.776v-2.0161h1.776v-3.7854h2.32v3.7854h1.777v2.0161h-1.777v8.0028h-2.32Zm5.371-5.0197c-.02-.7201.147-1.4195.439-2.0573.565-1.3167 1.651-2.3453 2.989-2.8596 1.379-.5349 2.905-.5349 4.284 0 .69.2674 1.296.6789 1.797 1.1932.523.4938.941 1.0904 1.212 1.7487.565 1.3166.586 2.7979.021 4.1145-.271.6584-.689 1.2344-1.212 1.7282-1.066 1.0286-2.508 1.5841-4.012 1.5841-.732 0-1.442-.1235-2.132-.3909-.669-.2675-1.296-.6583-1.797-1.1727-.523-.4937-.92-1.0903-1.212-1.7487-.251-.6994-.397-1.4195-.377-2.1395Zm8.757.0411c.021-.8846-.314-1.7281-.94-2.3658-.565-.6172-1.38-.967-2.237-.9464-.856 0-1.651.3497-2.236.9464-1.212 1.3372-1.212 3.3739 0 4.7111 1.15 1.2138 3.093 1.2755 4.326.144.042-.0411.105-.0823.147-.144.606-.6377.94-1.4812.94-2.3453Z" fill="#1AA64A"/></svg>