<svg width="140" height="36" fill="none" xmlns="http://www.w3.org/2000/svg"><path d="M46.9666 14.7347h-3.7955v-2.202h10.3355v2.202h-3.7955v9.4742h-2.7445v-9.4742Zm9.1402 1.6846c.3161-.4337.7399-.7618 1.2707-.9843.5421-.2221 1.1633-.3336 1.8636-.3336v2.4022c-.2934-.0224-.4912-.0335-.593-.0335-.7567 0-1.3497.2113-1.779.6339-.4293.4114-.644 1.0341-.644 1.8681v4.2368H53.582v-8.974h2.5248v1.1844Zm12.9394-1.1844v8.974h-2.508v-1.0677c-.3501.3891-.7681.6894-1.2538.9007-.4856.2001-1.0109.3004-1.5757.3004-1.1974 0-2.1461-.3393-2.8464-1.0176-.7003-.6782-1.0505-1.6846-1.0505-3.0191v-5.0707h2.6431v4.6871c0 1.4455.6157 2.1685 1.8468 2.1685.6326 0 1.141-.2001 1.5252-.6007.3839-.4115.5758-1.0172.5758-1.8181v-4.4368h2.6435Zm4.4991 9.1074c-.7572 0-1.497-.0891-2.2197-.2668-.7231-.1893-1.2992-.4226-1.7285-.7006l.8813-1.8682c.4065.2557.8977.467 1.4739.6335.5761.1558 1.141.2337 1.6944.2337 1.1183 0 1.6776-.2722 1.6776-.8174 0-.2557-.1527-.4392-.4575-.5503-.3051-.111-.774-.2059-1.4065-.2837-.7454-.1111-1.3611-.2391-1.8468-.3833-.4857-.1446-.9091-.4006-1.2707-.7673-.3501-.3671-.5252-.8896-.5252-1.5682 0-.5668.1637-1.0673.4912-1.5011.3388-.4449.8245-.7896 1.457-1.0341.644-.2445 1.4007-.3671 2.2706-.3671.644 0 1.282.0725 1.9146.2171.6439.1334 1.175.3224 1.593.5668l-.8813 1.8516c-.8018-.4446-1.6772-.6671-2.6263-.6671-.5648 0-.9882.0779-1.2706.2333-.2824.1558-.4238.3559-.4238.6007 0 .278.1528.4724.4575.5838.3051.1111.7908.2167 1.4571.317.7457.1222 1.3556.2556 1.8299.4002.4747.1334.8868.3837 1.237.7507.3501.3667.5252.8784.5252 1.5343 0 .556-.1692 1.051-.508 1.4845-.3392.4337-.8362.773-1.4912 1.0175-.6439.2337-1.412.3505-2.3042.3505Zm10.7973-.5672c-.2597.1889-.5817.3335-.9659.4338-.3725.0887-.7681.1334-1.186.1334-1.0842 0-1.926-.2726-2.5245-.8174-.5875-.5449-.8812-1.3457-.8812-2.4018v-3.6862h-1.4062V15.435h1.4062v-2.1848h2.6431v2.1848h2.2706v2.0019h-2.2706v3.6526c0 .3783.0963.6729.2882.8842.2033.2001.4857.3003.8472.3003.418 0 .7736-.1114 1.0674-.3339l.7117 1.835Zm22.3624-11.2424-3.88 11.6762h-2.9487l-2.6094-7.9064-2.694 7.9064h-2.9314l-3.8969-11.6762h2.8464l2.6772 8.2067 2.7958-8.2067h2.5413l2.7117 8.2734 2.761-8.2734h2.627Zm3.327 2.5687c1.412 0 2.497.3336 3.254 1.001.756.6559 1.135 1.6511 1.135 2.9856v5.1209h-2.474v-1.1178c-.497.834-1.423 1.2512-2.779 1.2512-.7 0-1.31-.1168-1.83-.3505-.508-.2333-.898-.556-1.169-.9674s-.406-.8784-.406-1.4012c0-.8337.316-1.4899.949-1.968.643-.4782 1.632-.7172 2.965-.7172h2.101c0-.5672-.175-1.001-.526-1.301-.35-.3115-.875-.4673-1.575-.4673-.486 0-.966.0779-1.441.2337-.463.1446-.858.3447-1.186.6003l-.949-1.818c.497-.3447 1.09-.6115 1.779-.8005.701-.1893 1.418-.2838 2.152-.2838Zm-.203 7.4892c.452 0 .853-.0999 1.203-.3.35-.2113.599-.5171.746-.9173v-.9177h-1.813c-1.085 0-1.627.3505-1.627 1.0511 0 .3335.13.6004.39.8005.271.1889.638.2834 1.101.2834Zm5.967-10.7581h2.644v12.3764h-2.644V11.8325Zm4.08 0h2.644v12.3764h-2.644V11.8325Zm13.009 7.9225c0 .0336-.016.2672-.05.7006h-6.896c.124.556.417.9952.88 1.3179.464.3224 1.04.4836 1.729.4836.474 0 .892-.0667 1.254-.2001.372-.1446.717-.3668 1.033-.6671l1.407 1.5011c-.859.9674-2.113 1.4513-3.762 1.4513-1.028 0-1.937-.1947-2.728-.5838-.791-.4006-1.401-.9508-1.83-1.6514-.429-.7006-.644-1.4957-.644-2.3852 0-.8784.209-1.6681.627-2.3687.43-.7114 1.011-1.262 1.745-1.651.746-.4006 1.576-.6008 2.491-.6008.893 0 1.7.1893 2.423.5672.723.3783 1.288.9231 1.694 1.6345.418.7006.627 1.518.627 2.4519Zm-4.727-2.6852c-.599 0-1.101.1666-1.508.5005-.407.3335-.655.7893-.746 1.3677h4.491c-.091-.5672-.339-1.0176-.746-1.3511-.407-.3447-.904-.5171-1.491-.5171Zm11.35 6.7053c-.26.1889-.582.3335-.966.4338-.372.0887-.768.1334-1.186.1334-1.084 0-1.926-.2726-2.524-.8174-.588-.5449-.881-1.3457-.881-2.4018v-3.6862h-1.407V15.435h1.407v-2.1848h2.643v2.1848h2.27v2.0019h-2.27v3.6526c0 .3783.096.6729.288.8842.203.2001.485.3003.847.3003.418 0 .774-.1114 1.068-.3339l.711 1.835Z" fill="#3375BB"/><path d="M23.8484 1.0882H12.3641C5.88091 1.0882.625244 6.26191.625244 12.644v11.3052c0 6.3821 5.255666 11.5559 11.738856 11.5559h11.4843c6.4832 0 11.7388-5.1738 11.7388-11.5559V12.644c0-6.38209-5.2556-11.5558-11.7388-11.5558Z" fill="#fff" stroke="#DFE5EC" stroke-width=".366284"/><path d="M1.96069 18.5452c0-8.83222 7.27327-15.99198 16.24521-15.99198 8.9721 0 16.2455 7.15976 16.2455 15.99198 0 8.8323-7.2734 15.9922-16.2455 15.9922-8.97194 0-16.24521-7.1599-16.24521-15.9922Z" fill="#fff"/><path d="M18.2153 8.98737c3.2783 2.69533 7.0378 2.52903 8.1118 2.52903-.2348 15.3281-2.0252 12.2884-8.1118 16.5865-6.0864-4.2981-7.8654-1.2584-8.1003-16.5865 1.0629 0 4.8222.1663 8.1003-2.52903Z" stroke="#3375BB" stroke-width="2.22079" stroke-miterlimit="10" stroke-linecap="round" stroke-linejoin="round"/></svg>